<svg width="720" height="480" viewBox="0 0 720 480" fill="none" xmlns="http://www.w3.org/2000/svg">
  <rect width="720" height="480" rx="12" fill="#f9fafb" stroke="#e5e7eb" stroke-width="1"/>

  <!-- Title bar -->
  <rect x="0" y="0" width="720" height="44" rx="12" fill="#f3f4f6"/>
  <rect x="0" y="12" width="720" height="32" fill="#f3f4f6"/>
  <circle cx="20" cy="22" r="6" fill="#ef4444" opacity="0.7"/>
  <circle cx="40" cy="22" r="6" fill="#eab308" opacity="0.7"/>
  <circle cx="60" cy="22" r="6" fill="#22c55e" opacity="0.7"/>
  <text x="360" y="26" text-anchor="middle" font-family="system-ui, sans-serif" font-size="13" font-weight="500" fill="#6b7280">Inbox — emdash</text>

  <!-- Sidebar -->
  <rect x="0" y="44" width="180" height="436" fill="#f9fafb"/>
  <line x1="180" y1="44" x2="180" y2="480" stroke="#e5e7eb" stroke-width="1"/>

  <!-- Sidebar items -->
  <rect x="12" y="60" width="156" height="32" rx="6" fill="#101828"/>
  <text x="40" y="81" font-family="system-ui, sans-serif" font-size="13" font-weight="500" fill="white">Inbox</text>
  <text x="148" y="81" text-anchor="end" font-family="system-ui, sans-serif" font-size="12" fill="white" opacity="0.7">3</text>

  <text x="40" y="117" font-family="system-ui, sans-serif" font-size="13" fill="#6b7280">Starred</text>
  <text x="40" y="149" font-family="system-ui, sans-serif" font-size="13" fill="#6b7280">Sent</text>
  <text x="40" y="181" font-family="system-ui, sans-serif" font-size="13" fill="#6b7280">Drafts</text>
  <text x="40" y="213" font-family="system-ui, sans-serif" font-size="13" fill="#6b7280">Archive</text>

  <!-- Email list area -->
  <rect x="180" y="44" width="540" height="436" fill="white"/>

  <!-- Search bar -->
  <rect x="196" y="56" width="508" height="32" rx="6" fill="#f3f4f6"/>
  <text x="216" y="77" font-family="system-ui, sans-serif" font-size="12" fill="#9ca3af">Search emails…</text>

  <!-- Email row 1 (unread) -->
  <rect x="180" y="100" width="540" height="64" fill="#f0f7ff"/>
  <line x1="180" y1="164" x2="720" y2="164" stroke="#f3f4f6" stroke-width="1"/>
  <circle cx="204" cy="132" r="4" fill="#3b82f6"/>
  <text x="224" y="124" font-family="system-ui, sans-serif" font-size="13" font-weight="600" fill="#101828">Alex Chen</text>
  <text x="224" y="142" font-family="system-ui, sans-serif" font-size="12" fill="#374151">Q1 planning doc ready for review</text>
  <text x="680" y="124" text-anchor="end" font-family="system-ui, sans-serif" font-size="11" fill="#9ca3af">2m</text>

  <!-- Email row 2 (unread) -->
  <rect x="180" y="164" width="540" height="64" fill="#f0f7ff"/>
  <line x1="180" y1="228" x2="720" y2="228" stroke="#f3f4f6" stroke-width="1"/>
  <circle cx="204" cy="196" r="4" fill="#3b82f6"/>
  <text x="224" y="188" font-family="system-ui, sans-serif" font-size="13" font-weight="600" fill="#101828">Sarah Park</text>
  <text x="224" y="206" font-family="system-ui, sans-serif" font-size="12" fill="#374151">Updated design files attached</text>
  <text x="680" y="188" text-anchor="end" font-family="system-ui, sans-serif" font-size="11" fill="#9ca3af">18m</text>

  <!-- Email row 3 (unread) -->
  <rect x="180" y="228" width="540" height="64" fill="#f0f7ff"/>
  <line x1="180" y1="292" x2="720" y2="292" stroke="#f3f4f6" stroke-width="1"/>
  <circle cx="204" cy="260" r="4" fill="#3b82f6"/>
  <text x="224" y="252" font-family="system-ui, sans-serif" font-size="13" font-weight="600" fill="#101828">GitHub</text>
  <text x="224" y="270" font-family="system-ui, sans-serif" font-size="12" fill="#374151">New pull request: Fix auth token refresh</text>
  <text x="680" y="252" text-anchor="end" font-family="system-ui, sans-serif" font-size="11" fill="#9ca3af">1h</text>

  <!-- Email row 4 (read) -->
  <rect x="180" y="292" width="540" height="64" fill="white"/>
  <line x1="180" y1="356" x2="720" y2="356" stroke="#f3f4f6" stroke-width="1"/>
  <text x="224" y="316" font-family="system-ui, sans-serif" font-size="13" fill="#6b7280">Jordan Lee</text>
  <text x="224" y="334" font-family="system-ui, sans-serif" font-size="12" fill="#9ca3af">Re: Team standup notes</text>
  <text x="680" y="316" text-anchor="end" font-family="system-ui, sans-serif" font-size="11" fill="#9ca3af">3h</text>

  <!-- Email row 5 (read) -->
  <rect x="180" y="356" width="540" height="64" fill="white"/>
  <line x1="180" y1="420" x2="720" y2="420" stroke="#f3f4f6" stroke-width="1"/>
  <text x="224" y="380" font-family="system-ui, sans-serif" font-size="13" fill="#6b7280">Notion</text>
  <text x="224" y="398" font-family="system-ui, sans-serif" font-size="12" fill="#9ca3af">Weekly workspace digest</text>
  <text x="680" y="380" text-anchor="end" font-family="system-ui, sans-serif" font-size="11" fill="#9ca3af">5h</text>

  <!-- Email row 6 (read) -->
  <rect x="180" y="420" width="540" height="60" fill="white"/>
  <text x="224" y="444" font-family="system-ui, sans-serif" font-size="13" fill="#6b7280">Linear</text>
  <text x="224" y="462" font-family="system-ui, sans-serif" font-size="12" fill="#9ca3af">2 issues assigned to you</text>
  <text x="680" y="444" text-anchor="end" font-family="system-ui, sans-serif" font-size="11" fill="#9ca3af">1d</text>

  <!-- Keyboard shortcut hint at bottom -->
  <rect x="180" y="458" width="540" height="22" fill="#fafafa"/>
  <text x="450" y="474" text-anchor="middle" font-family="ui-monospace, monospace" font-size="11" fill="#d1d5db">j/k navigate · e archive · r reply · # delete</text>
</svg>
